<?xml version="1.0" encoding="UTF-8" standalone="no"?>
<!DOCTYPE svg PUBLIC "-//W3C//DTD SVG 20010904//EN"
              "http://www.w3.org/TR/2001/REC-SVG-20010904/DTD/svg10.dtd">

<svg xmlns="http://www.w3.org/2000/svg"
     width="361.199mm" height="361.199mm"
     viewBox="0 0 1024 1024">
  <path id="Selection"
        fill="none" stroke="black" stroke-width="1"
        d="M 542.00,244.00
           C 540.16,230.37 536.07,218.26 536.00,204.00
             535.89,179.97 536.30,174.58 541.34,151.00
             541.34,151.00 543.44,141.00 543.44,141.00
             548.14,125.04 562.36,97.55 572.04,84.00
             572.04,84.00 579.47,75.00 579.47,75.00
             579.47,75.00 587.44,64.04 587.44,64.04
             587.44,64.04 593.83,57.83 593.83,57.83
             602.94,48.68 606.70,44.25 617.00,35.56
             617.00,35.56 628.00,25.62 628.00,25.62
             628.00,25.62 653.00,8.20 653.00,8.20
             660.32,3.79 666.26,0.11 675.00,0.00
             675.00,0.00 690.00,0.00 690.00,0.00
             703.14,0.16 715.07,9.78 725.17,17.25
             725.17,17.25 733.00,22.30 733.00,22.30
             738.72,26.38 741.98,29.72 747.04,34.28
             747.04,34.28 758.96,44.10 758.96,44.10
             758.96,44.10 767.02,53.00 767.02,53.00
             767.02,53.00 779.66,66.00 779.66,66.00
             779.66,66.00 785.84,75.00 785.84,75.00
             785.84,75.00 793.96,85.00 793.96,85.00
             801.25,95.22 813.63,118.23 817.95,130.00
             822.93,143.58 826.34,157.59 827.95,172.00
             828.39,175.90 828.89,190.65 830.60,192.69
             833.18,195.75 844.45,195.13 849.00,195.72
             866.42,197.99 878.44,200.17 895.00,206.42
             906.47,210.76 929.01,222.91 939.00,230.04
             939.00,230.04 949.00,238.16 949.00,238.16
             949.00,238.16 958.00,244.34 958.00,244.34
             958.00,244.34 971.00,256.98 971.00,256.98
             971.00,256.98 979.90,265.04 979.90,265.04
             979.90,265.04 989.72,276.96 989.72,276.96
             995.12,282.94 995.72,282.87 1000.85,290.00
             1000.85,290.00 1007.35,299.72 1007.35,299.72
             1012.95,307.12 1020.85,317.98 1023.24,327.00
             1024.41,331.42 1024.06,343.83 1024.00,349.00
             1023.89,357.74 1020.21,363.68 1015.80,371.00
             1015.80,371.00 997.54,397.00 997.54,397.00
             997.54,397.00 987.75,408.00 987.75,408.00
             987.75,408.00 979.70,417.83 979.70,417.83
             979.70,417.83 967.09,429.42 967.09,429.42
             967.09,429.42 959.96,436.56 959.96,436.56
             959.96,436.56 949.00,444.68 949.00,444.68
             949.00,444.68 937.00,453.98 937.00,453.98
             923.35,463.40 897.95,476.08 882.00,480.79
             882.00,480.79 872.00,482.88 872.00,482.88
             849.89,487.81 843.41,488.10 821.00,488.00
             806.92,487.93 793.78,483.86 780.00,482.00
             780.00,482.00 781.00,497.00 781.00,497.00
             781.00,497.00 781.00,524.00 781.00,524.00
             781.00,524.00 780.08,536.00 780.08,536.00
             777.98,562.35 772.55,580.30 764.08,605.00
             764.08,605.00 760.13,617.00 760.13,617.00
             760.13,617.00 744.78,646.00 744.78,646.00
             744.78,646.00 739.56,656.00 739.56,656.00
             739.56,656.00 729.37,670.00 729.37,670.00
             729.37,670.00 719.80,683.00 719.80,683.00
             708.18,696.70 694.78,710.14 681.00,721.68
             681.00,721.68 666.00,733.46 666.00,733.46
             666.00,733.46 659.00,739.47 659.00,739.47
             659.00,739.47 649.00,746.16 649.00,746.16
             649.00,746.16 631.00,759.56 631.00,759.56
             631.00,759.56 611.00,772.34 611.00,772.34
             611.00,772.34 599.00,780.53 599.00,780.53
             599.00,780.53 589.00,785.83 589.00,785.83
             589.00,785.83 579.00,792.39 579.00,792.39
             579.00,792.39 556.00,805.42 556.00,805.42
             556.00,805.42 537.00,816.69 537.00,816.69
             537.00,816.69 506.00,832.79 506.00,832.79
             506.00,832.79 496.00,838.74 496.00,838.74
             496.00,838.74 482.00,845.12 482.00,845.12
             482.00,845.12 452.00,860.74 452.00,860.74
             452.00,860.74 433.00,869.26 433.00,869.26
             433.00,869.26 418.00,877.11 418.00,877.11
             418.00,877.11 386.00,891.32 386.00,891.32
             386.00,891.32 370.00,899.14 370.00,899.14
             370.00,899.14 346.00,909.31 346.00,909.31
             346.00,909.31 318.00,922.13 318.00,922.13
             318.00,922.13 307.00,926.16 307.00,926.16
             307.00,926.16 272.00,941.80 272.00,941.80
             272.00,941.80 263.00,944.92 263.00,944.92
             263.00,944.92 232.00,958.20 232.00,958.20
             232.00,958.20 204.00,969.01 204.00,969.01
             204.00,969.01 175.00,981.19 175.00,981.19
             175.00,981.19 162.00,985.46 162.00,985.46
             162.00,985.46 111.00,1005.09 111.00,1005.09
             111.00,1005.09 61.00,1023.49 61.00,1023.49
             57.25,1024.26 47.29,1024.05 43.00,1024.00
             23.97,1023.77 5.63,1006.95 0.92,989.00
             -0.41,983.93 -0.06,974.53 0.00,969.00
             0.16,955.88 14.26,927.08 18.91,913.00
             18.91,913.00 38.54,862.00 38.54,862.00
             38.54,862.00 42.42,850.00 42.42,850.00
             42.42,850.00 54.99,820.00 54.99,820.00
             54.99,820.00 66.60,790.00 66.60,790.00
             66.60,790.00 79.08,761.00 79.08,761.00
             79.08,761.00 83.43,749.00 83.43,749.00
             83.43,749.00 97.84,717.00 97.84,717.00
             97.84,717.00 101.46,707.00 101.46,707.00
             101.46,707.00 109.86,688.00 109.86,688.00
             109.86,688.00 116.14,675.00 116.14,675.00
             116.14,675.00 121.33,662.00 121.33,662.00
             121.33,662.00 133.69,636.00 133.69,636.00
             133.69,636.00 142.31,616.00 142.31,616.00
             142.31,616.00 157.74,585.00 157.74,585.00
             157.74,585.00 163.26,572.00 163.26,572.00
             163.26,572.00 178.88,542.00 178.88,542.00
             178.88,542.00 182.37,534.00 182.37,534.00
             182.37,534.00 197.69,506.00 197.69,506.00
             197.69,506.00 206.31,489.00 206.31,489.00
             206.31,489.00 217.58,470.00 217.58,470.00
             217.58,470.00 231.00,446.00 231.00,446.00
             231.00,446.00 238.91,434.00 238.91,434.00
             238.91,434.00 243.09,426.00 243.09,426.00
             243.09,426.00 259.06,402.00 259.06,402.00
             259.06,402.00 269.43,386.00 269.43,386.00
             269.43,386.00 278.70,374.00 278.70,374.00
             278.70,374.00 283.93,366.00 283.93,366.00
             283.93,366.00 294.75,353.00 294.75,353.00
             294.75,353.00 303.32,342.00 303.32,342.00
             313.01,330.43 329.43,314.00 341.00,304.32
             341.00,304.32 357.91,292.00 357.91,292.00
             357.91,292.00 369.00,283.71 369.00,283.71
             369.00,283.71 378.00,279.22 378.00,279.22
             378.00,279.22 406.00,264.31 406.00,264.31
             406.00,264.31 420.00,259.68 420.00,259.68
             442.15,251.19 475.31,243.04 499.00,243.00
             499.00,243.00 527.00,243.00 527.00,243.00
             527.00,243.00 542.00,244.00 542.00,244.00 Z
           M 683.00,111.00
           C 672.92,118.22 665.83,126.34 658.34,136.00
             654.12,141.44 651.07,144.91 647.45,151.00
             639.81,163.86 634.83,182.07 635.00,197.00
             635.12,207.06 638.00,216.69 641.54,226.00
             644.72,234.34 643.60,233.78 649.19,242.00
             654.59,249.93 661.30,259.23 668.00,266.00
             669.93,267.94 674.18,272.80 676.99,272.80
             679.99,272.80 683.85,267.18 686.04,265.10
             686.04,265.10 693.00,259.63 693.00,259.63
             700.43,253.62 702.07,251.14 707.77,244.09
             713.52,236.97 718.79,229.38 722.56,221.00
             727.93,209.09 730.15,203.14 730.00,190.00
             729.84,176.81 722.48,157.94 715.30,147.00
             715.30,147.00 706.90,136.00 706.90,136.00
             706.90,136.00 697.71,124.09 697.71,124.09
             697.71,124.09 683.00,111.00 683.00,111.00 Z
           M 913.00,341.00
           C 913.00,341.00 899.91,326.29 899.91,326.29
             899.91,326.29 890.00,318.50 890.00,318.50
             890.00,318.50 879.00,309.89 879.00,309.89
             867.60,302.25 847.85,294.17 834.00,294.00
             810.82,293.73 794.66,305.44 777.01,318.85
             767.59,326.01 767.81,328.26 760.83,336.00
             756.09,341.25 754.21,341.51 750.00,348.00
             760.44,358.44 776.60,373.30 790.00,379.60
             799.58,384.11 816.39,388.87 827.00,389.00
             843.25,389.19 863.41,382.96 877.00,374.14
             877.00,374.14 888.00,365.66 888.00,365.66
             897.66,358.16 905.78,351.09 913.00,341.00 Z
           M 676.00,556.00
           C 676.00,556.00 679.54,541.00 679.54,541.00
             682.06,527.64 682.02,518.34 682.00,505.00
             681.98,489.10 678.01,471.91 672.69,457.00
             669.84,449.00 663.20,433.10 659.12,426.00
             659.12,426.00 652.17,416.00 652.17,416.00
             631.50,386.15 605.84,366.07 572.00,353.19
             557.86,347.81 537.11,342.18 522.00,342.00
             522.00,342.00 506.00,342.00 506.00,342.00
             482.53,342.04 460.06,350.17 439.00,359.69
             439.00,359.69 429.00,364.23 429.00,364.23
             421.44,368.51 418.70,371.18 412.00,376.12
             412.00,376.12 403.28,382.51 403.28,382.51
             389.65,394.52 382.51,403.21 371.20,416.99
             371.20,416.99 364.22,425.09 364.22,425.09
             364.22,425.09 356.26,437.00 356.26,437.00
             356.26,437.00 345.03,452.00 345.03,452.00
             345.03,452.00 334.33,469.00 334.33,469.00
             334.33,469.00 322.14,488.00 322.14,488.00
             318.87,495.51 324.90,498.78 330.00,503.28
             334.12,506.92 337.82,510.86 341.42,515.00
             341.42,515.00 356.99,530.00 356.99,530.00
             356.99,530.00 366.04,539.83 366.04,539.83
             370.32,543.89 374.94,547.47 378.79,552.00
             386.61,561.23 391.26,574.94 390.99,587.00
             390.77,596.50 384.96,610.91 378.79,617.98
             370.44,627.54 352.87,635.74 340.00,634.82
             327.19,633.90 315.46,628.67 306.01,619.90
             306.01,619.90 295.99,609.00 295.99,609.00
             295.99,609.00 284.09,597.99 284.09,597.99
             278.41,592.03 276.19,588.15 269.00,583.00
             269.00,583.00 249.60,623.00 249.60,623.00
             249.60,623.00 236.69,651.00 236.69,651.00
             236.69,651.00 225.31,674.00 225.31,674.00
             225.31,674.00 218.69,690.00 218.69,690.00
             218.69,690.00 202.34,725.00 202.34,725.00
             202.34,725.00 198.69,735.00 198.69,735.00
             198.69,735.00 183.44,768.00 183.44,768.00
             183.44,768.00 179.54,779.00 179.54,779.00
             179.54,779.00 172.72,795.00 172.72,795.00
             172.72,795.00 163.20,817.00 163.20,817.00
             163.20,817.00 155.57,837.00 155.57,837.00
             155.57,837.00 142.81,867.00 142.81,867.00
             142.81,867.00 139.56,877.00 139.56,877.00
             139.56,877.00 135.00,889.00 135.00,889.00
             135.00,889.00 147.00,884.44 147.00,884.44
             147.00,884.44 156.00,881.54 156.00,881.54
             156.00,881.54 187.00,868.43 187.00,868.43
             187.00,868.43 215.00,857.60 215.00,857.60
             215.00,857.60 244.00,844.87 244.00,844.87
             244.00,844.87 256.00,840.56 256.00,840.56
             256.00,840.56 288.00,825.86 288.00,825.86
             288.00,825.86 300.00,821.36 300.00,821.36
             300.00,821.36 332.00,806.30 332.00,806.30
             332.00,806.30 350.00,798.69 350.00,798.69
             350.00,798.69 373.00,787.31 373.00,787.31
             373.00,787.31 387.00,781.22 387.00,781.22
             387.00,781.22 419.00,765.26 419.00,765.26
             419.00,765.26 437.00,756.74 437.00,756.74
             437.00,756.74 450.00,749.31 450.00,749.31
             450.00,749.31 466.00,741.52 466.00,741.52
             466.00,741.52 492.00,726.86 492.00,726.86
             524.55,708.80 557.41,690.61 587.00,667.89
             587.00,667.89 597.96,660.60 597.96,660.60
             602.30,657.57 617.10,644.86 620.00,641.00
             620.00,641.00 567.00,588.00 567.00,588.00
             549.23,570.23 535.69,561.22 536.00,534.00
             536.08,527.40 537.20,524.06 539.60,518.00
             541.04,514.37 542.53,510.18 544.80,507.01
             547.04,503.89 550.06,501.51 553.00,499.08
             567.53,487.11 585.13,482.71 603.00,490.01
             614.87,494.86 621.18,502.18 630.00,511.00
             630.00,511.00 658.00,539.00 658.00,539.00
             663.29,544.29 670.13,551.79 676.00,556.00 Z" />
</svg>
